<svg xmlns="http://www.w3.org/2000/svg" viewBox="0 0 148.42 391.79"><defs><style>.cls-1{fill:#b59556;}</style></defs><title>Aktiv 1</title><g id="Lag_2" data-name="Lag 2"><g id="Layer_1" data-name="Layer 1"><rect class="cls-1" y="337.4" width="147.55" height="54.39" rx="3.54" ry="3.54"/><rect class="cls-1" y="256.39" width="147.55" height="54.39" rx="3.54" ry="3.54"/><path class="cls-1" d="M88.36,159.37a16.25,16.25,0,0,0-12.89-18.28l-49.66-7.4A30,30,0,0,1,0,104.06V40.82a.43.43,0,0,0,0,0A41.09,41.09,0,0,1,41,0h99.29a4.11,4.11,0,0,1,4.1,4.1V50.29a4.11,4.11,0,0,1-4.1,4.1H71.22c-8.24,0-16.74,6.14-16.83,16.2A16.16,16.16,0,0,0,68.63,86.68h.11l53.66,6.07c14.74,2.11,26,13,26,28.68V189a38.69,38.69,0,0,1-38.58,38.57H5.08a4.2,4.2,0,0,1-4.21-4.21v-46a4.21,4.21,0,0,1,4.21-4.21H72.33a15.28,15.28,0,0,0,1.93-.11c.13,0,.26,0,.38-.06a16.15,16.15,0,0,0,13.72-13.65"/></g></g></svg>