<?xml version="1.0" encoding="utf-8"?>
<!-- Generator: Adobe Illustrator 22.1.0, SVG Export Plug-In . SVG Version: 6.00 Build 0)  -->
<svg version="1.1" id="Lag_1" xmlns="http://www.w3.org/2000/svg" xmlns:xlink="http://www.w3.org/1999/xlink" x="0px" y="0px"
	 viewBox="0 0 37 71" style="enable-background:new 0 0 37 71;" xml:space="preserve">
<style type="text/css">
	.st0{fill:#494948;}
</style>
<title>Asset 1</title>
<g id="Layer_2">
	<g id="Layer_1-2">
		<path class="st0" d="M24.3,16.5c-0.1,1.5-0.1,3.1-0.1,4.6v4.5c4.1,0.5,8.1,0,12.4,0.3c-0.3,4.3-1,8.4-1.7,12.8H24.2
			c-0.1,3.7,0,7.2,0,10.8V71H10.8V39c-3.6-0.3-7,0-10.8-0.2c0-3.5,0-6.6,0-9.8c-0.1-1,0-2,0.3-3c3.3-0.3,6.7,0.1,10.2-0.2
			c0.3-1,0.4-2.1,0.3-3.1c-0.1-3.1,0-6.2,0.3-9.3c1-8,6.9-13,14.5-13.4c2.7-0.1,5.5,0,8.2,0C34.9,0,36,0.2,37.1,0.8v10.9
			c-0.6,0.7-1.5,0.4-2.2,0.4c-1.9,0.1-3.8,0-5.7,0C26.1,12.1,24.6,13.6,24.3,16.5z"/>
	</g>
</g>
</svg>
