<?xml version="1.0" encoding="utf-8"?>
<!-- Generator: Adobe Illustrator 22.1.0, SVG Export Plug-In . SVG Version: 6.00 Build 0)  -->
<svg version="1.1" id="Lag_1" xmlns="http://www.w3.org/2000/svg" xmlns:xlink="http://www.w3.org/1999/xlink" x="0px" y="0px"
	 viewBox="0 0 75.5 75.4" style="enable-background:new 0 0 75.5 75.4;" xml:space="preserve">
<style type="text/css">
	.st0{fill:#494948;}
</style>
<title>Asset 3</title>
<g id="Layer_2">
	<g id="Layer_1-2">
		<path class="st0" d="M60.6,0c-5.4,0.1-10.8,0-16.1,0H14.7C12-0.1,9.4,0.6,7.1,2C2.6,4.6-0.2,9.5,0,14.8C0.1,30,0.2,45.2,0,60.4
			c-0.2,8.1,6.2,14.8,14.3,15c0.2,0,0.5,0,0.7,0c15.1,0,30.3,0,45.4,0c1.8,0,3.6-0.3,5.3-0.8c5.9-1.9,9.8-7.4,9.7-13.5
			c0-7.7,0-15.5,0-23.2s-0.2-15.3,0-23c0.1-8-6.3-14.6-14.4-14.8C60.9,0,60.8,0,60.6,0z M24,48c-6.7-0.1-10.3-5.4-10.2-10.5
			c0.2-5.7,5-10.1,10.7-9.8c5.5,0.2,9.8,4.7,9.8,10.1C34,43.3,30.1,48,24,48z M51.6,48c-5.6,0.1-10.1-4.4-10.2-10c0-0.1,0-0.2,0-0.3
			c-0.1-5.6,4.3-10.3,9.9-10.4c0,0,0.1,0,0.1,0c5.7,0.3,10.1,5.1,9.9,10.8C61,43.4,56.8,47.7,51.6,48z"/>
	</g>
</g>
</svg>
