<?xml version="1.0" encoding="utf-8"?>
<!-- Generator: Adobe Illustrator 22.1.0, SVG Export Plug-In . SVG Version: 6.00 Build 0)  -->
<svg version="1.1" id="Lag_1" xmlns="http://www.w3.org/2000/svg" xmlns:xlink="http://www.w3.org/1999/xlink" x="0px" y="0px"
	 viewBox="0 0 75.3 75.4" style="enable-background:new 0 0 75.3 75.4;" xml:space="preserve">
<style type="text/css">
	.st0{fill:#494948;}
</style>
<title>Asset 2</title>
<g id="Layer_2">
	<g id="Layer_1-2">
		<path class="st0" d="M75.2,26c0-3.3-0.3-6.6-1-9.8c-1.9-7.9-6.8-12.9-14.6-15c-2.8-0.7-5.7-1.1-8.6-1.1C42.6,0,34.2-0.1,25.8,0
			c-3.3,0-6.5,0.3-9.7,1C8.2,3,3.2,7.9,1.1,15.8c-0.7,2.6-1,5.2-1,7.8c-0.1,4.6,0,9.1,0,13.7c0,6.3-0.3,12.6,0.4,18.8
			c1.1,9.7,7.2,16.4,16.8,18.3c4.3,0.8,8.7,0.7,13,0.8c7.3,0.3,14.6,0.2,21.8-0.3c2-0.1,4-0.3,6-0.6c8-1.3,14.5-7.4,16.1-15.4
			c0.7-3.2,1-6.5,1-9.8C75.3,41.5,75.3,33.7,75.2,26z M68.3,47.3c0,3.4-0.3,6.7-0.9,10c-1.4,6.2-5.7,9.8-12,10.5
			c-4,0.4-8,0.6-12,0.5c-5.8,0-11.5,0-17.2,0c-2.8-0.1-5.6-0.4-8.4-0.9c-5.2-1-9.5-5.1-10.2-11.6C7.2,53.5,7,51.3,7,49
			c0-8.3,0-16.6,0-24.9c0.1-2.3,0.4-4.6,1-6.8c1.2-5.2,5.5-9.1,10.8-9.8C21.7,7.1,24.6,7,27.5,7c3.4,0,6.7,0,10.1,0l0,0
			c4.6,0,9.1,0,13.7,0c2.1,0,4.2,0.3,6.2,0.8c6,1.3,9.7,5.8,10.3,12.5c0.3,3.3,0.5,6.5,0.5,9.8C68.2,35.8,68.3,41.6,68.3,47.3z"/>
		<path class="st0" d="M37.6,18.2c-11.9,0.1-19.4,9.3-19.4,19.4c-0.1,10.7,8.6,18.9,19.3,19.2c10.5,0.3,20.1-9.2,19.4-19.3
			C57.5,28.8,50.1,18.2,37.6,18.2z M37.5,50c-6.7,0.1-12.2-5.2-12.3-11.9c0-0.1,0-0.3,0-0.4c-0.2-6.8,5.1-12.5,11.9-12.8
			S49.7,30,49.9,36.9c0,0.2,0,0.5,0,0.7c0.2,6.7-5,12.3-11.7,12.5C38,50.1,37.8,50.1,37.5,50z"/>
		<path class="st0" d="M62.2,17.5c0.1,2.5-1.9,4.7-4.5,4.7c-2.5,0.1-4.7-1.9-4.7-4.5l0,0c0-2.5,2.1-4.6,4.7-4.5
			C60.1,13.2,62,15.1,62.2,17.5L62.2,17.5z"/>
	</g>
</g>
</svg>
