<?xml version="1.0" encoding="utf-8"?>
<!-- Generator: Adobe Illustrator 22.1.0, SVG Export Plug-In . SVG Version: 6.00 Build 0)  -->
<svg version="1.1" id="Lag_1" xmlns="http://www.w3.org/2000/svg" xmlns:xlink="http://www.w3.org/1999/xlink" x="0px" y="0px"
	 viewBox="0 0 75.5 75.2" style="enable-background:new 0 0 75.5 75.2;" xml:space="preserve">
<style type="text/css">
	.st0{fill:#494948;}
</style>
<title>Asset 4</title>
<g id="Layer_2">
	<g id="Layer_1-2">
		<path class="st0" d="M73.4,49.8c-7.1,20.6-29,29.5-46.4,23.7c3.9-5.4,4.5-11.8,6.4-18.1C34,56,34.5,56.5,35,57
			c1.8,1.7,4.2,2.7,6.6,2.8c5.9,0.6,11.6-2,15.1-6.7c5.4-6.6,7.4-15.4,5.4-23.7c-1.9-8.5-8-13.6-16.2-15.7
			c-6.4-1.6-13.2-1.1-19.2,1.6c-8.9,3.8-14.7,13-14.1,22.4c0.1,3.5,1.3,6.9,3.4,9.6c1.3,1.6,2.8,3.1,5.2,3.1
			c0.7-1.2,1.2-2.5,1.3-3.9c0.1-0.7-0.1-1.4-0.5-2c-3.4-4.8-3.1-9.9-0.9-14.8c3-6.8,8.4-10.4,15.8-10.6c2-0.1,4,0,6,0.4
			c6.3,1.6,10.3,5.9,10.8,12.4c0.6,5.7-0.7,11.4-3.6,16.3c-1.3,2.4-3.4,4.2-5.9,5c-2.4,0.9-5,0.3-6.9-1.4c-1.9-1.8-2.2-3.9-1.4-6.3
			c0.9-2.9,1.7-5.8,2.5-8.7c0.4-1.5,0.6-3,0.5-4.6c0.1-2-1.1-3.8-2.9-4.6c-1.8-0.8-3.9-0.5-5.4,0.8c-2,1.5-3.2,3.8-3.4,6.3
			c-0.4,2.3-0.2,4.6,0.5,6.8c0.4,1,0.4,2.1,0.1,3.2c-1.4,5.8-2.8,11.7-4.2,17.5c-0.6,2.3-0.9,4.6-0.9,7c0.1,0.8,0.1,1.6-0.2,2.4
			C10.1,67.7-4.9,49.6,1.5,27.2C7.3,7.2,28.2-4.3,48.2,1.5S79.7,28.1,74,48.1C73.8,48.7,73.6,49.3,73.4,49.8z"/>
	</g>
</g>
</svg>
