<?xml version="1.0" encoding="utf-8"?>
<!-- Generator: Adobe Illustrator 22.1.0, SVG Export Plug-In . SVG Version: 6.00 Build 0)  -->
<svg version="1.1" id="Lag_1" xmlns="http://www.w3.org/2000/svg" xmlns:xlink="http://www.w3.org/1999/xlink" x="0px" y="0px"
	 viewBox="0 0 76.7 62.7" style="enable-background:new 0 0 76.7 62.7;" xml:space="preserve">
<style type="text/css">
	.st0{fill:#494948;}
</style>
<title>Asset 5</title>
<g id="Layer_2">
	<g id="Layer_1-2">
		<path class="st0" d="M76.7,7.7c-2,3-4.5,5.6-7.4,7.8c-0.4,18.7-7.8,33.4-24.6,42.3c-14,7.5-32.6,6-44.6-2.4c4.3-0.1,8.2,0.1,12-1
			c3.9-1.1,7.6-3,10.8-5.4c-7.1-0.8-11.9-4.3-14.5-11c2.1-0.4,4.2,0.2,6.3-0.4c-3.5-1.3-6.5-3-8.6-5.9c-2.1-2.8-3.3-6.2-3.2-9.7
			c2.2,0.6,3.9,1.8,6.3,1.5C5.3,20.2,3,16.2,2.9,11.3c-0.2-3,0.6-5.9,2.3-8.4c8,9.7,19.6,15.7,32.1,16.5c-0.2-2.5-0.1-4.9,0.3-7.4
			c1.5-6.4,8-12,14.8-12c4.2,0.1,8,0.9,11,3.8c1.1,1.1,2.3,0.9,3.5,0.6c2.7-0.8,5.3-1.9,7.7-3.3c-1,3.4-3.1,6.3-6,8.3
			C71.6,9.6,73.8,8.2,76.7,7.7z"/>
	</g>
</g>
</svg>
