<?xml version="1.0" encoding="utf-8"?>
<!-- Generator: Adobe Illustrator 22.1.0, SVG Export Plug-In . SVG Version: 6.00 Build 0)  -->
<svg version="1.1" id="Lag_1" xmlns="http://www.w3.org/2000/svg" xmlns:xlink="http://www.w3.org/1999/xlink" x="0px" y="0px"
	 viewBox="0 0 24 24" style="enable-background:new 0 0 24 24;" xml:space="preserve">
<style type="text/css">
	.st0{fill:none;}
	.st1{fill:#B59556;}
</style>
<path class="st0" d="M0,0h24v24H0V0z"/>
<path class="st1" d="M7,14c-1.7,0-3,1.3-3,3c0,1.3-1.2,2-2,2c0.9,1.2,2.5,2,4,2c2.2,0,4-1.8,4-4C10,15.3,8.7,14,7,14z M20.7,4.6
	l-1.3-1.3c-0.4-0.4-1-0.4-1.4,0l-9,9l2.8,2.8l9-9C21.1,5.7,21.1,5,20.7,4.6z"/>
</svg>
