<svg xmlns="http://www.w3.org/2000/svg" viewBox="0 0 110.37 21.02"><defs><style>.cls-1{fill:#b59556;}.cls-2{fill:#fff;}</style></defs><title>Aktiv 2</title><g id="Lag_2" data-name="Lag 2"><g id="Lag_1-2" data-name="Lag 1"><path class="cls-1" d="M107.61,2.77a7.75,7.75,0,1,0-11,11,8.31,8.31,0,0,0,1.08.9c1.48,1.28,3.94,3.68,3.94,5.43a.46.46,0,0,0,.92,0h0c0-1.75,2.44-4.14,3.92-5.42a8.57,8.57,0,0,0,1.1-.91A7.74,7.74,0,0,0,107.61,2.77Z"/><path class="cls-2" d="M102.13.5a7.75,7.75,0,0,1,5.48,13.23,8.57,8.57,0,0,1-1.1.91c-1.48,1.28-3.92,3.67-3.92,5.42h0a.46.46,0,0,1-.92,0c0-1.75-2.46-4.15-3.94-5.43a8.31,8.31,0,0,1-1.08-.9A7.75,7.75,0,0,1,102.13.5m0-.5A8.25,8.25,0,0,0,96.3,14.08a7,7,0,0,0,1.13.94c2.38,2.08,3.74,3.91,3.74,5a1,1,0,1,0,1.92,0V20h0c0-1.12,1.4-2.93,3.73-5a7.56,7.56,0,0,0,1.14-.95A8.25,8.25,0,0,0,102.13,0Z"/><rect class="cls-2" x="98.66" y="6.75" width="6.94" height="4.56"/><rect class="cls-2" x="97.66" y="10.81" width="8.94" height="1"/><polygon class="cls-2" points="102.13 3.83 97.69 7.05 97.69 7.61 102.13 7.61 106.57 7.61 106.57 7.05 102.13 3.83"/><rect class="cls-1" x="99.63" y="6.96" width="5" height="3.85" rx="0.12" ry="0.12"/><rect class="cls-2" x="100.87" y="7.75" width="0.65" height="1.81"/><rect class="cls-2" x="102.74" y="7.75" width="0.65" height="1.81"/><rect class="cls-2" x="101.39" y="8.33" width="1.47" height="0.22"/><rect class="cls-2" x="101.39" y="8.92" width="1.47" height="0.22"/><path class="cls-1" d="M.85,12.24a3.68,3.68,0,0,0,1.87.53c1.07,0,1.69-.56,1.69-1.38S4,10.21,2.89,9.79C1.57,9.32.75,8.63.75,7.5A2.34,2.34,0,0,1,3.37,5.3a3.56,3.56,0,0,1,1.78.4l-.28.85a3.19,3.19,0,0,0-1.54-.39c-1.1,0-1.52.66-1.52,1.21,0,.76.49,1.13,1.61,1.56,1.36.53,2.06,1.19,2.06,2.38s-.92,2.33-2.83,2.33a4.13,4.13,0,0,1-2.06-.52Z"/><path class="cls-2" d="M3.37,5.3a3.56,3.56,0,0,1,1.78.4l-.28.85a3.19,3.19,0,0,0-1.54-.39c-1.1,0-1.52.66-1.52,1.21,0,.76.49,1.13,1.61,1.56,1.36.53,2.06,1.19,2.06,2.38s-.92,2.33-2.83,2.33a4.13,4.13,0,0,1-2.06-.52l.26-.88a3.68,3.68,0,0,0,1.87.53c1.07,0,1.69-.56,1.69-1.38S4,10.21,2.89,9.79C1.57,9.32.75,8.63.75,7.5A2.34,2.34,0,0,1,3.37,5.3m0-.5A2.83,2.83,0,0,0,.25,7.5c0,1.26.81,2.17,2.47,2.76,1.1.42,1.19.75,1.19,1.13,0,.8-.83.88-1.19.88a3.22,3.22,0,0,1-1.61-.45l-.55-.34-.19.62L.11,13,0,13.33l.31.21a4.7,4.7,0,0,0,2.34.6C5,14.14,6,12.72,6,11.31,6,9.61,4.71,8.9,3.6,8.47s-1.29-.74-1.29-1.1.27-.71,1-.71A2.69,2.69,0,0,1,4.63,7l.52.28.19-.56.29-.85.13-.4-.36-.2a4.12,4.12,0,0,0-2-.46Z"/><path class="cls-1" d="M7.92,10.37h0c.14-.2.35-.45.52-.66l1.7-2h1.27L9.19,10.1l2.55,3.42H10.46l-2-2.79-.54.6v2.19h-1V5h1Z"/><path class="cls-2" d="M7.92,5v5.37h0c.14-.2.35-.45.52-.66l1.7-2h1.27L9.19,10.1l2.55,3.42H10.46l-2-2.79-.54.6v2.19h-1V5h1m.5-.5h-2V14H8.42V11.53l1.63,2.28.15.21h2.54l-.6-.8-2.3-3.09,2-2.08.79-.84H9.93l-.15.18L8.42,9V4.5Z"/><path class="cls-1" d="M15.93,13.52l-.08-.74h0a2.15,2.15,0,0,1-1.77.87A1.66,1.66,0,0,1,12.26,12c0-1.4,1.25-2.17,3.49-2.16V9.7a1.19,1.19,0,0,0-1.32-1.34,2.93,2.93,0,0,0-1.51.43l-.24-.7a3.63,3.63,0,0,1,1.91-.51c1.77,0,2.2,1.21,2.2,2.37v2.17a8.44,8.44,0,0,0,.1,1.4Zm-.16-3c-1.15,0-2.45.18-2.45,1.31a.93.93,0,0,0,1,1,1.45,1.45,0,0,0,1.41-1,1.33,1.33,0,0,0,0-.34Z"/><path class="cls-2" d="M14.59,7.58c1.77,0,2.2,1.21,2.2,2.37v2.17a8.44,8.44,0,0,0,.1,1.4h-1l-.08-.74h0a2.15,2.15,0,0,1-1.77.87A1.66,1.66,0,0,1,12.26,12c0-1.39,1.23-2.16,3.44-2.16h.05V9.7a1.19,1.19,0,0,0-1.32-1.34,2.93,2.93,0,0,0-1.51.43l-.24-.7a3.63,3.63,0,0,1,1.91-.51m-.28,5.29a1.45,1.45,0,0,0,1.41-1,1.33,1.33,0,0,0,0-.34v-1h-.16c-1.11,0-2.29.24-2.29,1.31a.93.93,0,0,0,1,1m.28-5.79a4.09,4.09,0,0,0-2.18.6l-.33.21.13.37.24.69.21.61.53-.35a2.39,2.39,0,0,1,1.24-.35c.45,0,.69.14.78.47-3.1.17-3.45,1.89-3.45,2.65A2.15,2.15,0,0,0,14,14.15a2.87,2.87,0,0,0,1.42-.38l0,.25h2l-.11-.59a7.49,7.49,0,0,1-.09-1.31V10a2.54,2.54,0,0,0-2.7-2.87Zm-.28,5.29a.44.44,0,0,1-.49-.51c0-.48.49-.75,1.45-.8v.5a.67.67,0,0,1,0,.18.94.94,0,0,1-.93.63Z"/><path class="cls-1" d="M23.5,7.71c0,.42-.05.89-.05,1.6v3.37a3.36,3.36,0,0,1-.82,2.65,3.12,3.12,0,0,1-2.11.69,3.73,3.73,0,0,1-1.93-.48l.26-.8a3.25,3.25,0,0,0,1.7.45c1.08,0,1.87-.56,1.87-2v-.65h0a2.07,2.07,0,0,1-1.85,1,2.59,2.59,0,0,1-2.47-2.83A2.78,2.78,0,0,1,20.7,7.58a2,2,0,0,1,1.81,1h0l0-.88ZM22.41,10a1.47,1.47,0,0,0-.06-.48,1.52,1.52,0,0,0-1.47-1.11c-1,0-1.73.85-1.73,2.19,0,1.14.57,2.09,1.71,2.09a1.55,1.55,0,0,0,1.47-1.08,1.83,1.83,0,0,0,.08-.57Z"/><path class="cls-2" d="M20.7,7.58a2,2,0,0,1,1.81,1h0l0-.88h.92c0,.42-.05.89-.05,1.6v3.37a3.36,3.36,0,0,1-.82,2.65,3.12,3.12,0,0,1-2.11.69,3.73,3.73,0,0,1-1.93-.48l.26-.8a3.25,3.25,0,0,0,1.7.45c1.08,0,1.87-.56,1.87-2v-.65h0a2.07,2.07,0,0,1-1.85,1,2.59,2.59,0,0,1-2.47-2.83A2.78,2.78,0,0,1,20.7,7.58m.16,5.11a1.55,1.55,0,0,0,1.47-1.08,1.87,1.87,0,0,0,.08-.57V10a1.47,1.47,0,0,0-.06-.48,1.52,1.52,0,0,0-1.47-1.11c-1,0-1.73.85-1.73,2.19,0,1.14.57,2.09,1.71,2.09M20.7,7.08a3.29,3.29,0,0,0-3.12,3.58,3.1,3.1,0,0,0,3,3.33,2.9,2.9,0,0,0,1.33-.31,1.17,1.17,0,0,1-1.33,1,2.72,2.72,0,0,1-1.44-.38L18.57,14l-.2.6-.26.81-.12.36.32.21a4.2,4.2,0,0,0,2.21.56A3.55,3.55,0,0,0,23,15.69a3.76,3.76,0,0,0,1-3V9.31c0-.7,0-1.16.05-1.57l0-.53H22.11l0,.23a2.61,2.61,0,0,0-1.39-.36Zm.16,5.11c-.89,0-1.21-.82-1.21-1.59,0-1,.48-1.69,1.23-1.69a1,1,0,0,1,1,.76,1,1,0,0,1,0,.33v1a1.27,1.27,0,0,1-.06.41,1,1,0,0,1-1,.74Z"/><path class="cls-1" d="M25.8,10.81a1.85,1.85,0,0,0,2,2,3.75,3.75,0,0,0,1.6-.3l.18.76a4.8,4.8,0,0,1-1.93.36,2.7,2.7,0,0,1-2.85-2.93c0-1.75,1-3.13,2.72-3.13a2.46,2.46,0,0,1,2.4,2.73,2.85,2.85,0,0,1,0,.5Zm3.09-.76a1.51,1.51,0,0,0-1.46-1.72,1.75,1.75,0,0,0-1.62,1.72Z"/><path class="cls-2" d="M27.51,7.58a2.46,2.46,0,0,1,2.4,2.73,2.85,2.85,0,0,1,0,.5H25.8a1.85,1.85,0,0,0,2,2,3.75,3.75,0,0,0,1.6-.3l.18.76a4.8,4.8,0,0,1-1.93.36,2.7,2.7,0,0,1-2.85-2.93c0-1.75,1-3.13,2.72-3.13m-1.7,2.47h3.08a1.51,1.51,0,0,0-1.46-1.72,1.75,1.75,0,0,0-1.62,1.72m1.7-3c-1.9,0-3.22,1.49-3.22,3.63a3.18,3.18,0,0,0,3.35,3.43,5.08,5.08,0,0,0,2.14-.41l.38-.17-.1-.4-.18-.76-.14-.57-.54.23a3.41,3.41,0,0,1-1.41.26,1.32,1.32,0,0,1-1.43-1h4l.05-.45v0c0-.12,0-.29,0-.5a2.93,2.93,0,0,0-2.9-3.23ZM26.45,9.55a1.07,1.07,0,0,1,1-.72.87.87,0,0,1,.65.24,1.1,1.1,0,0,1,.25.48Z"/><path class="cls-1" d="M31.22,9.28c0-.6,0-1.09,0-1.57h.94l.06,1h0a2.14,2.14,0,0,1,1.92-1.09c.8,0,2,.48,2,2.47v3.47h-1V10.17c0-.94-.35-1.72-1.35-1.72a1.51,1.51,0,0,0-1.41,1.08,1.55,1.55,0,0,0-.07.5v3.49H31.22Z"/><path class="cls-2" d="M34.11,7.58c.8,0,2,.48,2,2.47v3.47h-1V10.17c0-.94-.35-1.72-1.35-1.72a1.51,1.51,0,0,0-1.41,1.08,1.55,1.55,0,0,0-.07.5v3.49H31.22V9.28c0-.6,0-1.09,0-1.57h.94l.06,1h0a2.14,2.14,0,0,1,1.92-1.09m0-.5a2.7,2.7,0,0,0-1.51.44l0-.31H30.63l0,.54c0,.44,0,.89,0,1.53V14h2.06V10a1.11,1.11,0,0,1,0-.33A1,1,0,0,1,33.76,9c.23,0,.85,0,.85,1.22V14h2v-4c0-2.19-1.37-3-2.55-3Z"/><path class="cls-1" d="M37.74,12.44a2.79,2.79,0,0,0,1.39.42c.77,0,1.12-.39,1.12-.87s-.29-.78-1.07-1.07c-1-.37-1.54-.94-1.54-1.64a1.79,1.79,0,0,1,2-1.7,2.91,2.91,0,0,1,1.43.36l-.26.77a2.22,2.22,0,0,0-1.19-.34c-.62,0-1,.36-1,.79s.35.7,1.1,1c1,.38,1.52.88,1.52,1.75s-.79,1.74-2.17,1.74a3.33,3.33,0,0,1-1.63-.4Z"/><path class="cls-2" d="M39.64,7.58a2.91,2.91,0,0,1,1.43.36l-.26.77a2.22,2.22,0,0,0-1.19-.34c-.62,0-1,.36-1,.79s.35.7,1.1,1c1,.38,1.52.88,1.52,1.75s-.79,1.74-2.17,1.74a3.33,3.33,0,0,1-1.63-.4l.27-.8a2.79,2.79,0,0,0,1.39.42c.77,0,1.12-.39,1.12-.87s-.29-.78-1.07-1.07c-1-.37-1.54-.94-1.54-1.64a1.79,1.79,0,0,1,2-1.7m0-.5a2.29,2.29,0,0,0-2.5,2.2c0,.66.32,1.57,1.87,2.12.74.27.74.43.74.59s-.34.37-.62.37A2.32,2.32,0,0,1,38,12l-.55-.36-.2.62-.26.8-.13.39.35.2a3.77,3.77,0,0,0,1.88.47c1.6,0,2.67-.9,2.67-2.24a2.39,2.39,0,0,0-1.84-2.22c-.78-.3-.78-.41-.78-.52,0-.27.36-.29.47-.29a1.73,1.73,0,0,1,.92.26l.53.34.21-.6.26-.77.14-.38-.35-.21a3.48,3.48,0,0,0-1.69-.43Z"/><path class="cls-1" d="M52,10c-.06-1.13-.13-2.49-.12-3.49h0c-.28.94-.61,1.95-1,3.07l-1.43,3.92h-.79L47.32,9.62c-.38-1.14-.7-2.19-.93-3.14h0c0,1-.08,2.36-.15,3.57L46,13.52H45l.56-8.09h1.33l1.38,3.91c.34,1,.61,1.89.82,2.72h0c.21-.81.49-1.7.85-2.72l1.44-3.91h1.33l.51,8.09h-1Z"/><path class="cls-2" d="M52.74,5.43l.51,8.09h-1L52,10c-.06-1.13-.13-2.49-.12-3.49h0c-.28.94-.61,1.95-1,3.07l-1.43,3.92h-.79L47.32,9.62c-.38-1.14-.7-2.19-.93-3.14h0c0,1-.08,2.36-.15,3.57L46,13.52H45l.56-8.09h1.33l1.38,3.91c.34,1,.61,1.88.82,2.72h0c.21-.81.49-1.7.85-2.72l1.44-3.91h1.33m.47-.5H51.06l-.12.33L49.5,9.17q-.21.63-.39,1.14c-.1-.34-.23-.72-.37-1.13L47.36,5.27l-.12-.34H45.09l0,.47-.56,8.08,0,.54h2l0-.47.22-3.47,0-.62c0,.1.07.21.11.32l1.31,3.85.11.34h1.5l.12-.33,1.43-3.92.17-.47c0,.26,0,.51,0,.74l.2,3.55,0,.48h2l0-.54L53.24,5.4l0-.47Z"/><path class="cls-1" d="M59.72,11.93c0,.6,0,1.13.05,1.59h-.94l-.06-.95h0a2.19,2.19,0,0,1-1.92,1.08c-.91,0-2-.51-2-2.55V7.71h1.06v3.21c0,1.11.34,1.85,1.29,1.85a1.47,1.47,0,0,0,1.49-1.5V7.71h1.06Z"/><path class="cls-2" d="M59.72,7.71v4.22c0,.6,0,1.13.05,1.59h-.94l-.06-.95h0a2.19,2.19,0,0,1-1.92,1.08c-.91,0-2-.51-2-2.55V7.71h1.06v3.21c0,1.11.34,1.85,1.29,1.85a1.47,1.47,0,0,0,1.49-1.5V7.71h1.06m.5-.5H58.16v4.06a1,1,0,0,1-.06.36,1,1,0,0,1-.93.64c-.27,0-.79,0-.79-1.35V7.21H54.32V11.1c0,2.83,1.92,3.05,2.51,3.05a2.65,2.65,0,0,0,1.51-.45l0,.32h2l-.05-.54c0-.4,0-.89,0-1.55V7.21Z"/><path class="cls-1" d="M61.33,12.44a2.79,2.79,0,0,0,1.39.42c.77,0,1.13-.39,1.13-.87s-.3-.78-1.08-1.07c-1.05-.37-1.54-.94-1.54-1.64a1.79,1.79,0,0,1,2-1.7,2.91,2.91,0,0,1,1.43.36l-.26.77a2.22,2.22,0,0,0-1.19-.34c-.62,0-1,.36-1,.79s.35.7,1.1,1c1,.38,1.53.88,1.53,1.75s-.8,1.74-2.18,1.74a3.33,3.33,0,0,1-1.63-.4Z"/><path class="cls-2" d="M63.23,7.58a2.91,2.91,0,0,1,1.43.36l-.26.77a2.22,2.22,0,0,0-1.19-.34c-.62,0-1,.36-1,.79s.35.7,1.1,1c1,.38,1.53.88,1.53,1.75s-.8,1.74-2.18,1.74a3.33,3.33,0,0,1-1.63-.4l.27-.8a2.79,2.79,0,0,0,1.39.42c.77,0,1.13-.39,1.13-.87s-.3-.78-1.08-1.07c-1.05-.37-1.54-.94-1.54-1.64a1.79,1.79,0,0,1,2-1.7m0-.5a2.29,2.29,0,0,0-2.5,2.2c0,.66.33,1.57,1.87,2.12.75.27.75.43.75.59s-.34.37-.63.37A2.32,2.32,0,0,1,61.6,12l-.54-.36-.21.62-.26.8-.13.39.35.2a3.77,3.77,0,0,0,1.88.47c1.6,0,2.68-.9,2.68-2.24a2.4,2.4,0,0,0-1.85-2.22c-.78-.3-.78-.41-.78-.52,0-.27.36-.29.47-.29a1.73,1.73,0,0,1,.92.26l.54.34.2-.6.26-.77.14-.38-.35-.21a3.45,3.45,0,0,0-1.69-.43Z"/><path class="cls-1" d="M66.81,10.81a1.86,1.86,0,0,0,2,2,3.8,3.8,0,0,0,1.61-.3l.18.76a4.84,4.84,0,0,1-1.93.36,2.7,2.7,0,0,1-2.86-2.93c0-1.75,1-3.13,2.73-3.13a2.46,2.46,0,0,1,2.4,2.73,4.36,4.36,0,0,1,0,.5Zm3.1-.76a1.51,1.51,0,0,0-1.47-1.72,1.77,1.77,0,0,0-1.62,1.72Z"/><path class="cls-2" d="M68.53,7.58a2.46,2.46,0,0,1,2.4,2.73,4.36,4.36,0,0,1,0,.5H66.81a1.86,1.86,0,0,0,2,2,3.8,3.8,0,0,0,1.61-.3l.18.76a4.84,4.84,0,0,1-1.93.36,2.7,2.7,0,0,1-2.86-2.93c0-1.75,1-3.13,2.73-3.13m-1.71,2.47h3.09a1.51,1.51,0,0,0-1.47-1.72,1.77,1.77,0,0,0-1.62,1.72m1.71-3c-1.9,0-3.23,1.49-3.23,3.63a3.18,3.18,0,0,0,3.36,3.43,5.11,5.11,0,0,0,2.14-.41l.37-.17-.09-.4-.18-.76-.14-.57-.55.23a3.37,3.37,0,0,1-1.41.26,1.32,1.32,0,0,1-1.43-1h4l0-.45v0a3,3,0,0,0,0-.5,2.93,2.93,0,0,0-2.9-3.23ZM67.47,9.55a1.05,1.05,0,0,1,1-.72.85.85,0,0,1,.65.24,1,1,0,0,1,.26.48Z"/><path class="cls-1" d="M77.09,11.93c0,.6,0,1.13,0,1.59h-.93l-.06-.95h0a2.18,2.18,0,0,1-1.92,1.08c-.91,0-2-.51-2-2.55V7.71h1.06v3.21c0,1.11.33,1.85,1.29,1.85A1.5,1.5,0,0,0,76,11.27V7.71h1Z"/><path class="cls-2" d="M77.09,7.71v4.22c0,.6,0,1.13,0,1.59h-.93l-.06-.95h0a2.18,2.18,0,0,1-1.92,1.08c-.91,0-2-.51-2-2.55V7.71h1.06v3.21c0,1.11.33,1.85,1.29,1.85A1.5,1.5,0,0,0,76,11.27V7.71h1m.5-.5h-2v4.06a1.29,1.29,0,0,1-.06.36,1.06,1.06,0,0,1-.93.64c-.28,0-.79,0-.79-1.35V7.21H71.7V11.1c0,2.83,1.92,3.05,2.5,3.05a2.66,2.66,0,0,0,1.52-.45l0,.32h1.94l0-.54c0-.4,0-.89,0-1.55V7.21Z"/><path class="cls-1" d="M78.85,9.28c0-.6,0-1.09,0-1.57h.92l0,.94h0a2,2,0,0,1,1.82-1.07,1.71,1.71,0,0,1,1.64,1.16h0A2.53,2.53,0,0,1,83.94,8a2,2,0,0,1,1.29-.41c.77,0,1.91.5,1.91,2.52v3.42h-1V10.23c0-1.12-.4-1.79-1.26-1.79a1.37,1.37,0,0,0-1.24,1,1.73,1.73,0,0,0-.09.53v3.59h-1V10c0-.93-.41-1.6-1.21-1.6A1.45,1.45,0,0,0,80,9.5a1.4,1.4,0,0,0-.08.51v3.51h-1Z"/><path class="cls-2" d="M85.23,7.58c.77,0,1.91.5,1.91,2.52v3.42h-1V10.23c0-1.12-.4-1.79-1.26-1.79a1.37,1.37,0,0,0-1.24,1,1.73,1.73,0,0,0-.09.53v3.59h-1V10c0-.93-.41-1.6-1.21-1.6A1.45,1.45,0,0,0,80,9.5a1.4,1.4,0,0,0-.08.51v3.51h-1V9.28c0-.6,0-1.09,0-1.57h.92l0,.94h0a2,2,0,0,1,1.82-1.07,1.71,1.71,0,0,1,1.64,1.16h0A2.53,2.53,0,0,1,83.94,8a2,2,0,0,1,1.29-.41m0-.5a2.48,2.48,0,0,0-1.59.51,2.61,2.61,0,0,0-.31.27,2.19,2.19,0,0,0-1.7-.78,2.52,2.52,0,0,0-1.42.41V7.21H78.26l0,.54c0,.44,0,.89,0,1.53V14h2V10a1,1,0,0,1,.05-.33,1,1,0,0,1,.84-.74c.62,0,.71.69.71,1.1v4h2V9.93a1.51,1.51,0,0,1,.06-.37.88.88,0,0,1,.77-.62c.21,0,.76,0,.76,1.29V14h2V10.1c0-2.23-1.3-3-2.41-3Z"/></g></g></svg>