<svg xmlns="http://www.w3.org/2000/svg" viewBox="0 0 107.62 21.02"><defs><style>.cls-1{fill:#b59556;}.cls-2{fill:#fff;}</style></defs><title>Aktiv 3</title><g id="Lag_2" data-name="Lag 2"><g id="Lag_1-2" data-name="Lag 1"><path class="cls-1" d="M104.85,2.77A7.75,7.75,0,1,0,95,14.63c1.47,1.28,3.93,3.68,3.93,5.43a.46.46,0,1,0,.92,0h0c0-1.75,2.44-4.14,3.92-5.42a7.93,7.93,0,0,0,1.1-.91A7.74,7.74,0,0,0,104.85,2.77Z"/><path class="cls-2" d="M99.37.5a7.75,7.75,0,0,1,5.48,13.23,7.93,7.93,0,0,1-1.1.91c-1.48,1.28-3.92,3.67-3.92,5.42h0a.46.46,0,1,1-.92,0c0-1.75-2.46-4.15-3.93-5.43A7.75,7.75,0,0,1,99.37.5m0-.5a8.25,8.25,0,0,0-5.83,14.08,7,7,0,0,0,1.13.94c2.38,2.08,3.74,3.91,3.74,5a1,1,0,0,0,1.92,0V20h0c0-1.12,1.4-2.93,3.73-5a7.1,7.1,0,0,0,1.14-.95A8.25,8.25,0,0,0,99.37,0Z"/><rect class="cls-2" x="95.9" y="6.75" width="6.94" height="4.56"/><rect class="cls-2" x="94.9" y="10.81" width="8.94" height="1"/><polygon class="cls-2" points="99.37 3.83 94.93 7.05 94.93 7.61 99.37 7.61 103.81 7.61 103.81 7.05 99.37 3.83"/><rect class="cls-1" x="96.87" y="6.96" width="5" height="3.85" rx="0.12" ry="0.12"/><rect class="cls-2" x="98.11" y="7.75" width="0.65" height="1.81"/><rect class="cls-2" x="99.98" y="7.75" width="0.65" height="1.81"/><rect class="cls-2" x="98.64" y="8.33" width="1.47" height="0.22"/><rect class="cls-2" x="98.64" y="8.92" width="1.47" height="0.22"/><path class="cls-1" d="M.5,6.73a14.44,14.44,0,0,1,2.22-.17A4.6,4.6,0,0,1,6,7.57a3.71,3.71,0,0,1,1.14,2.9A4.28,4.28,0,0,1,6,13.61,5,5,0,0,1,2.4,14.77a17,17,0,0,1-1.9-.09Zm1,7.15a7.79,7.79,0,0,0,1.06.06A3.11,3.11,0,0,0,6,10.51C6.05,8.6,5,7.39,2.77,7.39a5.36,5.36,0,0,0-1.23.11Z"/><path class="cls-2" d="M2.72,6.56A4.6,4.6,0,0,1,6,7.57a3.71,3.71,0,0,1,1.14,2.9A4.28,4.28,0,0,1,6,13.61,5,5,0,0,1,2.4,14.77a17,17,0,0,1-1.9-.09V6.73a14.44,14.44,0,0,1,2.22-.17M2.6,13.94A3.11,3.11,0,0,0,6,10.51C6.05,8.6,5,7.39,2.77,7.39a5.36,5.36,0,0,0-1.23.11v6.38a7.79,7.79,0,0,0,1.06.06m.12-7.88a16,16,0,0,0-2.29.17L0,6.3v8.83l.44,0a19.3,19.3,0,0,0,2,.09A5.43,5.43,0,0,0,6.32,14a4.78,4.78,0,0,0,1.31-3.5A4.24,4.24,0,0,0,6.33,7.2,5,5,0,0,0,2.72,6.06ZM2,7.92a7.18,7.18,0,0,1,.73,0,2.87,2.87,0,0,1,2.12.7,2.55,2.55,0,0,1,.65,1.91A2.63,2.63,0,0,1,2.6,13.44l-.56,0V7.92Z"/><path class="cls-1" d="M8.46,10.71c0-.68,0-1.27-.05-1.81h.92l0,1.14h.05A1.73,1.73,0,0,1,11,8.77a1.32,1.32,0,0,1,.3,0v1a1.28,1.28,0,0,0-.36,0,1.48,1.48,0,0,0-1.41,1.36,2.38,2.38,0,0,0-.05.49V14.7h-1Z"/><path class="cls-2" d="M11,8.77a1.32,1.32,0,0,1,.3,0v1a1.28,1.28,0,0,0-.36,0,1.48,1.48,0,0,0-1.41,1.36,2.38,2.38,0,0,0-.05.49V14.7h-1v-4c0-.68,0-1.27-.05-1.81h.92l0,1.14h.05A1.73,1.73,0,0,1,11,8.77m0-.5a2.11,2.11,0,0,0-1.2.38V8.4H7.87l0,.53c0,.48,0,1,0,1.78V15.2h2V11.61a2.71,2.71,0,0,1,0-.41,1,1,0,0,1,.92-.94.9.9,0,0,1,.25,0l.61.13v-2l-.38-.09A1.42,1.42,0,0,0,11,8.27Z"/><path class="cls-1" d="M15.53,14.7,15.45,14h0a2.13,2.13,0,0,1-1.77.86,1.65,1.65,0,0,1-1.78-1.66c0-1.41,1.25-2.17,3.49-2.16v-.12A1.19,1.19,0,0,0,14,9.55a2.86,2.86,0,0,0-1.51.43l-.24-.7a3.63,3.63,0,0,1,1.91-.51C16,8.77,16.4,10,16.4,11.14v2.17a8.32,8.32,0,0,0,.09,1.39Zm-.15-3c-1.15,0-2.46.18-2.46,1.31a.94.94,0,0,0,1,1,1.44,1.44,0,0,0,1.4-1,1.2,1.2,0,0,0,.06-.33Z"/><path class="cls-2" d="M14.19,8.77C16,8.77,16.4,10,16.4,11.14v2.17a8.32,8.32,0,0,0,.09,1.39h-1L15.45,14h0a2.13,2.13,0,0,1-1.77.86,1.65,1.65,0,0,1-1.78-1.66c0-1.39,1.23-2.16,3.44-2.16h0v-.12A1.19,1.19,0,0,0,14,9.55a2.86,2.86,0,0,0-1.51.43l-.24-.7a3.63,3.63,0,0,1,1.91-.51m-.27,5.29a1.44,1.44,0,0,0,1.4-1,1.2,1.2,0,0,0,.06-.33v-1h-.17c-1.11,0-2.29.24-2.29,1.31a.94.94,0,0,0,1,1m.27-5.79A4.08,4.08,0,0,0,12,8.86l-.33.22.13.37.24.69.21.6.54-.34A2.35,2.35,0,0,1,14,10.05c.46,0,.7.13.78.47-3.1.16-3.45,1.89-3.45,2.65a2.15,2.15,0,0,0,2.28,2.16A2.84,2.84,0,0,0,15.06,15l0,.24h2l-.1-.59a7.36,7.36,0,0,1-.09-1.3V11.14a2.54,2.54,0,0,0-2.71-2.87Zm-.27,5.29a.45.45,0,0,1-.5-.51c0-.49.49-.76,1.46-.8v.5a.49.49,0,0,1,0,.18.94.94,0,0,1-.92.63Z"/><path class="cls-1" d="M22.24,14.49a4,4,0,0,1-1.67.33,2.75,2.75,0,0,1-2.89-3A3,3,0,0,1,20.8,8.78a3.45,3.45,0,0,1,1.47.3L22,9.89a2.54,2.54,0,0,0-1.23-.27,2,2,0,0,0-2.05,2.19,2,2,0,0,0,2,2.17,3,3,0,0,0,1.29-.28Z"/><path class="cls-2" d="M20.8,8.78a3.45,3.45,0,0,1,1.47.3L22,9.89a2.54,2.54,0,0,0-1.23-.27,2,2,0,0,0-2.05,2.19,2,2,0,0,0,2,2.17,3,3,0,0,0,1.29-.28l.18.79a4,4,0,0,1-1.67.33,2.75,2.75,0,0,1-2.89-3A3,3,0,0,1,20.8,8.78m0-.5a3.44,3.44,0,0,0-3.62,3.58,3.25,3.25,0,0,0,3.39,3.46,4.33,4.33,0,0,0,1.9-.39l.34-.18-.08-.37-.18-.79-.14-.6-.55.25a2.55,2.55,0,0,1-1.09.24,1.5,1.5,0,0,1-1.52-1.67,1.52,1.52,0,0,1,1.55-1.69,1.94,1.94,0,0,1,1,.21l.55.31.18-.61.23-.81.12-.4-.37-.19a4,4,0,0,0-1.69-.35Z"/><path class="cls-1" d="M23.48,6.19h1.06V9.81h0a2,2,0,0,1,.75-.74,2.22,2.22,0,0,1,1.08-.3c.78,0,2,.48,2,2.48V14.7H27.37V11.37c0-.94-.35-1.73-1.35-1.73a1.51,1.51,0,0,0-1.41,1.06,1.26,1.26,0,0,0-.07.5v3.5H23.48Z"/><path class="cls-2" d="M24.54,6.19V9.81h0a2,2,0,0,1,.75-.74,2.22,2.22,0,0,1,1.08-.3c.78,0,2,.48,2,2.48V14.7H27.37V11.37c0-.94-.35-1.73-1.35-1.73a1.51,1.51,0,0,0-1.41,1.06,1.26,1.26,0,0,0-.07.5v3.5H23.48V6.19h1.06m.5-.5H23V15.2H25v-4a.76.76,0,0,1,0-.31,1,1,0,0,1,.95-.75c.23,0,.85,0,.85,1.23V15.2h2.05V11.25c0-2.2-1.36-3-2.53-3a2.69,2.69,0,0,0-1.33.36l0,0v-3Z"/><path class="cls-1" d="M30.14,10.47c0-.6,0-1.09-.05-1.57H31l0,.93h0a2,2,0,0,1,1.82-1.06,1.74,1.74,0,0,1,1.65,1.16h0a2.46,2.46,0,0,1,.65-.76,2,2,0,0,1,1.28-.4c.77,0,1.91.5,1.91,2.52V14.7h-1V11.42c0-1.12-.41-1.79-1.26-1.79a1.36,1.36,0,0,0-1.25,1,1.69,1.69,0,0,0-.08.53V14.7h-1V11.23c0-.93-.4-1.6-1.21-1.6a1.45,1.45,0,0,0-1.31,1.06,1.65,1.65,0,0,0-.08.51v3.5h-1Z"/><path class="cls-2" d="M36.52,8.77c.77,0,1.91.5,1.91,2.52V14.7h-1V11.42c0-1.12-.41-1.79-1.26-1.79a1.36,1.36,0,0,0-1.25,1,1.69,1.69,0,0,0-.08.53V14.7h-1V11.22c0-.92-.4-1.59-1.21-1.59a1.45,1.45,0,0,0-1.31,1.06,1.65,1.65,0,0,0-.08.51v3.5h-1V10.47c0-.6,0-1.09-.05-1.57H31l0,.93h0a2,2,0,0,1,1.82-1.06,1.74,1.74,0,0,1,1.65,1.16h0a2.46,2.46,0,0,1,.65-.76,2,2,0,0,1,1.28-.4m0-.5a2.49,2.49,0,0,0-1.89.78,2.18,2.18,0,0,0-1.71-.78,2.53,2.53,0,0,0-1.42.4V8.4H29.55l0,.54c0,.43.05.89.05,1.53V15.2h2v-4a1.11,1.11,0,0,1,0-.34,1,1,0,0,1,.84-.73c.62,0,.71.69.71,1.09v4h2V11.12a1.5,1.5,0,0,1,0-.37.87.87,0,0,1,.78-.62c.2,0,.76,0,.76,1.29V15.2h2V11.29c0-2.23-1.3-3-2.41-3Z"/><path class="cls-1" d="M43.36,14.7,43.28,14h0a2.14,2.14,0,0,1-1.77.86,1.65,1.65,0,0,1-1.78-1.66c0-1.41,1.25-2.17,3.49-2.16v-.12a1.19,1.19,0,0,0-1.32-1.34,2.84,2.84,0,0,0-1.51.43l-.24-.7A3.63,3.63,0,0,1,42,8.77c1.77,0,2.21,1.21,2.21,2.37v2.17a8.32,8.32,0,0,0,.09,1.39Zm-.15-3c-1.16,0-2.46.18-2.46,1.31a.93.93,0,0,0,1,1,1.45,1.45,0,0,0,1.41-1,1.2,1.2,0,0,0,.06-.33Z"/><path class="cls-2" d="M42,8.77c1.77,0,2.21,1.21,2.21,2.37v2.17a8.32,8.32,0,0,0,.09,1.39h-1L43.28,14h0a2.14,2.14,0,0,1-1.77.86,1.65,1.65,0,0,1-1.78-1.66c0-1.39,1.23-2.16,3.44-2.16h0v-.12a1.19,1.19,0,0,0-1.32-1.34,2.84,2.84,0,0,0-1.51.43l-.24-.7A3.63,3.63,0,0,1,42,8.77m-.28,5.29a1.45,1.45,0,0,0,1.41-1,1.2,1.2,0,0,0,.06-.33v-1H43c-1.11,0-2.29.24-2.29,1.31a.93.93,0,0,0,1,1M42,8.27a4.08,4.08,0,0,0-2.18.59l-.33.22.13.37.24.69.21.6.53-.34a2.39,2.39,0,0,1,1.24-.35c.45,0,.69.13.78.47-3.1.16-3.45,1.89-3.45,2.65a2.15,2.15,0,0,0,2.28,2.16A2.86,2.86,0,0,0,42.89,15l0,.24h2l-.11-.59a7.53,7.53,0,0,1-.08-1.3V11.14A2.54,2.54,0,0,0,42,8.27Zm-.28,5.29a.45.45,0,0,1-.49-.51c0-.49.49-.76,1.46-.8v.5a.74.74,0,0,1,0,.18.94.94,0,0,1-.93.63Z"/><path class="cls-1" d="M45.93,10.47c0-.6,0-1.09,0-1.57h.94l.06,1h0a2.14,2.14,0,0,1,1.92-1.09c.81,0,2,.48,2,2.47V14.7h-1V11.36c0-.94-.35-1.72-1.35-1.72a1.5,1.5,0,0,0-1.41,1.08,1.45,1.45,0,0,0-.07.49V14.7H45.93Z"/><path class="cls-2" d="M48.82,8.77c.81,0,2,.48,2,2.47V14.7h-1V11.36c0-.94-.35-1.72-1.35-1.72a1.5,1.5,0,0,0-1.41,1.08,1.45,1.45,0,0,0-.07.49V14.7H45.93V10.47c0-.6,0-1.09,0-1.57h.94l.06,1h0a2.14,2.14,0,0,1,1.92-1.09m0-.5a2.69,2.69,0,0,0-1.51.43l0-.3H45.35l0,.54c0,.43,0,.89,0,1.53V15.2h2.06v-4a1,1,0,0,1,0-.32,1,1,0,0,1,.94-.75c.23,0,.85,0,.85,1.22V15.2h2v-4c0-2.2-1.37-3-2.55-3Z"/><path class="cls-1" d="M52.59,10.47c0-.6,0-1.09-.05-1.57h.94l.06,1h0a2.14,2.14,0,0,1,1.92-1.09c.81,0,2.05.48,2.05,2.47V14.7H56.48V11.36c0-.94-.35-1.72-1.35-1.72a1.5,1.5,0,0,0-1.41,1.08,1.45,1.45,0,0,0-.07.49V14.7H52.59Z"/><path class="cls-2" d="M55.48,8.77c.81,0,2.05.48,2.05,2.47V14.7H56.48V11.36c0-.94-.35-1.72-1.35-1.72a1.5,1.5,0,0,0-1.41,1.08,1.45,1.45,0,0,0-.07.49V14.7H52.59V10.47c0-.6,0-1.09-.05-1.57h.94l.06,1h0a2.14,2.14,0,0,1,1.92-1.09m0-.5A2.69,2.69,0,0,0,54,8.7l0-.3H52l0,.54c0,.43.05.89.05,1.53V15.2h2.06v-4a1,1,0,0,1,0-.32,1,1,0,0,1,.94-.75c.23,0,.85,0,.85,1.22V15.2H58v-4c0-2.2-1.37-3-2.55-3Z"/><path class="cls-1" d="M59.11,13.62A2.69,2.69,0,0,0,60.5,14c.77,0,1.13-.38,1.13-.86s-.3-.78-1.08-1.07c-1-.37-1.54-.95-1.54-1.64a1.79,1.79,0,0,1,2-1.7,2.81,2.81,0,0,1,1.43.36l-.26.76A2.32,2.32,0,0,0,61,9.56c-.62,0-1,.36-1,.79s.35.69,1.1,1c1,.39,1.53.89,1.53,1.75,0,1-.8,1.74-2.18,1.74a3.33,3.33,0,0,1-1.63-.39Z"/><path class="cls-2" d="M61,8.77a2.81,2.81,0,0,1,1.43.36l-.26.76A2.32,2.32,0,0,0,61,9.56c-.62,0-1,.36-1,.79s.35.69,1.1,1c1,.39,1.53.89,1.53,1.75,0,1-.8,1.74-2.18,1.74a3.33,3.33,0,0,1-1.63-.39l.27-.81A2.69,2.69,0,0,0,60.5,14c.77,0,1.13-.38,1.13-.86s-.3-.78-1.08-1.07c-1-.37-1.54-.95-1.54-1.64a1.79,1.79,0,0,1,2-1.7m0-.5a2.28,2.28,0,0,0-2.5,2.2c0,.66.33,1.56,1.87,2.11.75.28.75.44.75.6s-.34.36-.63.36a2.31,2.31,0,0,1-1.12-.33l-.54-.36-.21.62-.26.8-.13.38.35.21a3.87,3.87,0,0,0,1.88.46c1.6,0,2.68-.9,2.68-2.24a2.39,2.39,0,0,0-1.85-2.21c-.78-.3-.78-.41-.78-.52,0-.27.36-.29.47-.29a1.73,1.73,0,0,1,.92.26l.54.33.2-.59.26-.77.14-.39-.35-.2A3.34,3.34,0,0,0,61,8.27Z"/><path class="cls-1" d="M67.63,6.62V10h3.91V6.62h1V14.7h-1V10.91H67.63V14.7h-1V6.62Z"/><path class="cls-2" d="M72.59,6.62V14.7h-1V10.91H67.63V14.7h-1V6.62h1V10h3.91V6.62h1m.5-.5H71V9.5H68.13V6.12h-2V15.2h2V11.41H71V15.2h2V6.12Z"/><path class="cls-1" d="M79.23,13.12c0,.6,0,1.13,0,1.58h-.94l-.06-.94h0a2.2,2.2,0,0,1-1.92,1.07c-.91,0-2-.5-2-2.54V8.9h1.06v3.21c0,1.11.34,1.85,1.3,1.85a1.53,1.53,0,0,0,1.39-1,1.57,1.57,0,0,0,.09-.54V8.9h1.06Z"/><path class="cls-2" d="M79.23,8.9v4.22c0,.6,0,1.13,0,1.58h-.94l-.06-.94h0a2.2,2.2,0,0,1-1.92,1.07c-.91,0-2-.5-2-2.54V8.9h1.06v3.21c0,1.11.34,1.85,1.3,1.85a1.53,1.53,0,0,0,1.39-1,1.57,1.57,0,0,0,.09-.54V8.9h1.06m.5-.5H77.67v4.06a1,1,0,0,1-.06.36,1,1,0,0,1-.92.64c-.28,0-.8,0-.8-1.35V8.4H73.83v3.89c0,2.83,1.92,3,2.51,3a2.65,2.65,0,0,0,1.51-.44l0,.31h1.95l0-.54c0-.39,0-.89,0-1.54V8.4Z"/><path class="cls-1" d="M80.84,13.62a2.69,2.69,0,0,0,1.39.42c.77,0,1.13-.38,1.13-.86s-.3-.78-1.08-1.07c-1-.37-1.54-.95-1.54-1.64a1.79,1.79,0,0,1,2-1.7,2.79,2.79,0,0,1,1.42.36l-.26.76a2.32,2.32,0,0,0-1.19-.33c-.62,0-1,.36-1,.79s.35.69,1.1,1c1,.39,1.53.89,1.53,1.75,0,1-.79,1.74-2.17,1.74a3.27,3.27,0,0,1-1.63-.39Z"/><path class="cls-2" d="M82.75,8.77a2.79,2.79,0,0,1,1.42.36l-.26.76a2.32,2.32,0,0,0-1.19-.33c-.62,0-1,.36-1,.79s.35.69,1.1,1c1,.39,1.53.89,1.53,1.75,0,1-.79,1.74-2.17,1.74a3.27,3.27,0,0,1-1.63-.39l.26-.81a2.69,2.69,0,0,0,1.39.42c.77,0,1.13-.38,1.13-.86s-.3-.78-1.08-1.07c-1-.37-1.54-.95-1.54-1.64a1.79,1.79,0,0,1,2-1.7m0-.5a2.29,2.29,0,0,0-2.51,2.2c0,.66.33,1.56,1.87,2.11.75.28.75.44.75.6s-.34.36-.63.36a2.31,2.31,0,0,1-1.12-.33l-.54-.36-.21.62-.26.8-.13.38.35.21a3.89,3.89,0,0,0,1.89.46c1.59,0,2.67-.9,2.67-2.24A2.39,2.39,0,0,0,83,10.87c-.78-.3-.78-.41-.78-.52,0-.27.36-.29.47-.29a1.73,1.73,0,0,1,.92.26l.54.33.2-.59.27-.77.13-.39-.35-.2a3.33,3.33,0,0,0-1.68-.43Z"/></g></g></svg>