<svg xmlns="http://www.w3.org/2000/svg" viewBox="0 0 96.4 21.02"><defs><style>.cls-1{fill:#b59556;}.cls-2{fill:#fff;}</style></defs><title>Aktiv 4</title><g id="Lag_2" data-name="Lag 2"><g id="Lag_1-2" data-name="Lag 1"><path class="cls-1" d="M2.94,12.44l-1,3H.7L3.9,6H5.38L8.6,15.41H7.29l-1-3ZM6,11.49,5.11,8.77C4.9,8.15,4.76,7.59,4.62,7h0c-.14.56-.29,1.14-.48,1.71l-.92,2.74Z"/><path class="cls-2" d="M5.38,6,8.6,15.41H7.29l-1-3H2.94l-1,3H.7L3.9,6H5.38M3.19,11.49H6L5.11,8.77C4.9,8.15,4.76,7.59,4.62,7h0c-.14.56-.29,1.14-.48,1.71l-.92,2.74m2.54-6H3.55l-.12.34L.22,15.25,0,15.91H2.32l.11-.35.87-2.62H5.93l.89,2.63.12.34H9.3l-.23-.66L5.85,5.8l-.12-.33ZM3.89,11l.7-2.08,0-.06,0,.08L5.34,11Z"/><path class="cls-1" d="M9.9,10.46c0-.7,0-1.27-.05-1.83h1.09L11,9.75h0a2.48,2.48,0,0,1,2.24-1.28c.94,0,2.39.56,2.39,2.89v4.05H14.44V11.5c0-1.09-.41-2-1.57-2a1.74,1.74,0,0,0-1.65,1.26,1.62,1.62,0,0,0-.09.57v4.08H9.9Z"/><path class="cls-2" d="M13.28,8.47c.94,0,2.39.56,2.39,2.89v4.05H14.44V11.5c0-1.09-.41-2-1.57-2a1.74,1.74,0,0,0-1.65,1.26,1.62,1.62,0,0,0-.09.57v4.08H9.9V10.46c0-.7,0-1.27-.05-1.83h1.09L11,9.75h0a2.48,2.48,0,0,1,2.24-1.28m0-.5a3.06,3.06,0,0,0-1.84.58l0-.42H9.31l0,.53c0,.51.05,1.05.05,1.8v5.45h2.23V11.33a1.11,1.11,0,0,1,.06-.4A1.25,1.25,0,0,1,12.87,10c.27,0,1.07,0,1.07,1.5v4.41h2.23V11.36c0-2.5-1.56-3.39-2.89-3.39Z"/><path class="cls-1" d="M22.51,15.15a4.5,4.5,0,0,1-2,.4,3.22,3.22,0,0,1-3.37-3.46,3.44,3.44,0,0,1,3.64-3.6,4.1,4.1,0,0,1,1.71.35l-.28.95a2.87,2.87,0,0,0-1.43-.32A2.35,2.35,0,0,0,18.43,12a2.33,2.33,0,0,0,2.36,2.54,3.54,3.54,0,0,0,1.51-.34Z"/><path class="cls-2" d="M20.83,8.49a4.1,4.1,0,0,1,1.71.35l-.28.95a2.87,2.87,0,0,0-1.43-.32A2.35,2.35,0,0,0,18.43,12a2.33,2.33,0,0,0,2.36,2.54,3.54,3.54,0,0,0,1.51-.34l.21.92a4.5,4.5,0,0,1-2,.4,3.22,3.22,0,0,1-3.37-3.46,3.44,3.44,0,0,1,3.64-3.6m0-.5a3.94,3.94,0,0,0-4.14,4.1,3.7,3.7,0,0,0,3.87,4,5,5,0,0,0,2.18-.45l.34-.18L23,15l-.21-.92-.14-.59-.55.24a3,3,0,0,1-1.31.3,1.83,1.83,0,0,1-1.86-2A1.85,1.85,0,0,1,20.83,10a2.48,2.48,0,0,1,1.18.25l.55.32.18-.61L23,9l.11-.4-.37-.19A4.65,4.65,0,0,0,20.83,8Z"/><path class="cls-1" d="M24,5.46h1.24V9.69h0a2.33,2.33,0,0,1,.89-.87,2.5,2.5,0,0,1,1.26-.35c.91,0,2.36.56,2.36,2.9v4H28.49v-3.9c0-1.09-.4-2-1.57-2a1.76,1.76,0,0,0-1.65,1.23,1.51,1.51,0,0,0-.08.59v4.09H24Z"/><path class="cls-2" d="M25.19,5.46V9.69h0a2.33,2.33,0,0,1,.89-.87,2.5,2.5,0,0,1,1.26-.35c.91,0,2.36.56,2.36,2.9v4H28.49v-3.9c0-1.09-.4-2-1.57-2a1.76,1.76,0,0,0-1.65,1.23,1.51,1.51,0,0,0-.08.59v4.09H24V5.46h1.24m.5-.5H23.45v11h2.24V11.32a1.2,1.2,0,0,1,0-.4A1.27,1.27,0,0,1,26.92,10c.27,0,1.07,0,1.07,1.51v4.4h2.23V11.37c0-2.51-1.54-3.4-2.86-3.4a3,3,0,0,0-1.51.42l-.16.1V5Z"/><path class="cls-1" d="M32.41,12.24a2.17,2.17,0,0,0,2.33,2.35,4.45,4.45,0,0,0,1.88-.35l.21.89a5.64,5.64,0,0,1-2.26.42,3.15,3.15,0,0,1-3.33-3.42c0-2.05,1.2-3.66,3.18-3.66,2.21,0,2.8,1.95,2.8,3.2,0,.25,0,.44,0,.57ZM36,11.36a1.75,1.75,0,0,0-1.71-2,2,2,0,0,0-1.89,2Z"/><path class="cls-2" d="M34.42,8.47c2.21,0,2.8,1.95,2.8,3.2,0,.25,0,.44,0,.57H32.41a2.17,2.17,0,0,0,2.33,2.35,4.45,4.45,0,0,0,1.88-.35l.21.89a5.64,5.64,0,0,1-2.26.42,3.15,3.15,0,0,1-3.33-3.42c0-2.05,1.2-3.66,3.18-3.66m-2,2.89H36a1.75,1.75,0,0,0-1.71-2,2,2,0,0,0-1.89,2m2-3.39c-2.17,0-3.68,1.71-3.68,4.16a3.63,3.63,0,0,0,3.83,3.92A6,6,0,0,0,37,15.58l.38-.17-.1-.4-.21-.88L37,13.55l-.55.23a3.8,3.8,0,0,1-1.68.31A1.63,1.63,0,0,1,33,12.74h4.66l0-.44v-.07a3.82,3.82,0,0,0,0-.56c0-1.84-1-3.7-3.3-3.7Zm-1.36,2.89a1.35,1.35,0,0,1,1.26-1,1.1,1.1,0,0,1,.82.29,1.47,1.47,0,0,1,.34.71Z"/><path class="cls-1" d="M38.75,10.74c0-.8,0-1.48-.06-2.11h1.08l0,1.33h.06a2,2,0,0,1,1.87-1.49,1.23,1.23,0,0,1,.35,0V9.68a1.71,1.71,0,0,0-.42,0A1.73,1.73,0,0,0,40,11.22a3.22,3.22,0,0,0-.06.57v3.62H38.75Z"/><path class="cls-2" d="M41.74,8.47a1.23,1.23,0,0,1,.35,0V9.68a1.71,1.71,0,0,0-.42,0A1.73,1.73,0,0,0,40,11.22a3.22,3.22,0,0,0-.06.57v3.62H38.75V10.74c0-.8,0-1.48-.06-2.11h1.08l0,1.33h.06a2,2,0,0,1,1.87-1.49m0-.5a2.36,2.36,0,0,0-1.48.54V8.13H38.16l0,.53c0,.57.06,1.21.06,2.08v5.17h2.21V11.79a3.69,3.69,0,0,1,0-.49,1.26,1.26,0,0,1,1.16-1.16,1,1,0,0,1,.31,0l.61.13V8.13L42.22,8A1.86,1.86,0,0,0,41.74,8Z"/><path class="cls-1" d="M43.16,14.15a3.3,3.3,0,0,0,1.62.49c.9,0,1.32-.45,1.32-1s-.35-.91-1.26-1.25c-1.22-.43-1.79-1.11-1.79-1.92a2.09,2.09,0,0,1,2.34-2,3.43,3.43,0,0,1,1.66.42l-.31.9a2.58,2.58,0,0,0-1.38-.39c-.73,0-1.14.42-1.14.92s.41.81,1.29,1.15c1.18.45,1.78,1,1.78,2,0,1.19-.92,2-2.53,2a3.88,3.88,0,0,1-1.91-.47Z"/><path class="cls-2" d="M45.39,8.47a3.43,3.43,0,0,1,1.66.42l-.31.9a2.58,2.58,0,0,0-1.38-.39c-.73,0-1.14.42-1.14.92s.41.81,1.29,1.15c1.18.45,1.78,1,1.78,2,0,1.19-.92,2-2.53,2a3.88,3.88,0,0,1-1.91-.47l.31-.93a3.3,3.3,0,0,0,1.62.49c.9,0,1.32-.45,1.32-1s-.35-.91-1.26-1.25c-1.22-.43-1.79-1.11-1.79-1.92a2.09,2.09,0,0,1,2.34-2m0-.5a2.59,2.59,0,0,0-2.84,2.49c0,.75.37,1.77,2.12,2.39.93.34.93.57.93.78,0,.44-.51.51-.82.51a2.8,2.8,0,0,1-1.35-.41l-.54-.36-.21.62-.3.94-.13.38.35.21a4.45,4.45,0,0,0,2.16.53c1.81,0,3-1,3-2.53A2.73,2.73,0,0,0,45.69,11c-.9-.34-1-.49-1-.68s.33-.42.64-.42a2.2,2.2,0,0,1,1.12.31l.53.34.21-.6.31-.89.13-.39-.35-.21A3.91,3.91,0,0,0,45.39,8Z"/><path class="cls-1" d="M53.11,6v4h4.56V6H58.9v9.44H57.67V11H53.11v4.43H51.89V6Z"/><path class="cls-2" d="M58.9,6v9.44H57.67V11H53.11v4.43H51.89V6h1.22v4h4.56V6H58.9m.5-.5H57.17v4H53.61V5.47H51.39V15.91h2.22V11.48h3.56v4.43H59.4V5.47Z"/><path class="cls-1" d="M66.65,13.56c0,.7,0,1.31.06,1.85h-1.1l-.07-1.11h0a2.56,2.56,0,0,1-2.24,1.26c-1.07,0-2.34-.59-2.34-3v-4h1.23v3.75c0,1.29.39,2.16,1.51,2.16a1.73,1.73,0,0,0,1.74-1.75V8.63h1.23Z"/><path class="cls-2" d="M66.65,8.63v4.93c0,.7,0,1.31.06,1.85h-1.1l-.07-1.11h0a2.56,2.56,0,0,1-2.24,1.26c-1.07,0-2.34-.59-2.34-3v-4h1.23v3.75c0,1.29.39,2.16,1.51,2.16a1.73,1.73,0,0,0,1.74-1.75V8.63h1.23m.5-.5H64.92v4.66a1.33,1.33,0,0,1-.08.45,1.28,1.28,0,0,1-1.16.8c-.33,0-1,0-1-1.66V8.13H60.44v4.46c0,3.22,2.17,3.47,2.84,3.47a3,3,0,0,0,1.84-.59l0,.44h2.1l0-.54c0-.48-.06-1-.06-1.81V8.13Z"/><path class="cls-1" d="M68.53,14.15a3.3,3.3,0,0,0,1.62.49c.9,0,1.32-.45,1.32-1s-.35-.91-1.26-1.25C69,12,68.42,11.27,68.42,10.46a2.09,2.09,0,0,1,2.34-2,3.39,3.39,0,0,1,1.66.42l-.3.9a2.65,2.65,0,0,0-1.39-.39c-.73,0-1.14.42-1.14.92s.41.81,1.29,1.15c1.18.45,1.78,1,1.78,2,0,1.19-.92,2-2.53,2a3.88,3.88,0,0,1-1.91-.47Z"/><path class="cls-2" d="M70.76,8.47a3.39,3.39,0,0,1,1.66.42l-.3.9a2.65,2.65,0,0,0-1.39-.39c-.73,0-1.14.42-1.14.92s.41.81,1.29,1.15c1.18.45,1.78,1,1.78,2,0,1.19-.92,2-2.53,2a3.88,3.88,0,0,1-1.91-.47l.31-.93a3.3,3.3,0,0,0,1.62.49c.9,0,1.32-.45,1.32-1s-.35-.91-1.26-1.25C69,12,68.42,11.27,68.42,10.46a2.09,2.09,0,0,1,2.34-2m0-.5a2.59,2.59,0,0,0-2.84,2.49c0,.75.37,1.77,2.12,2.39.93.34.93.57.93.78,0,.44-.51.51-.82.51a2.83,2.83,0,0,1-1.35-.41l-.54-.36-.21.62-.3.94-.13.38.35.21a4.45,4.45,0,0,0,2.16.53c1.81,0,3-1,3-2.53A2.73,2.73,0,0,0,71.06,11c-.9-.34-1-.49-1-.68s.33-.42.64-.42a2.2,2.2,0,0,1,1.12.31l.53.34.21-.6.31-.89L73,8.67l-.35-.21A3.91,3.91,0,0,0,70.76,8Z"/><path class="cls-1" d="M93.64,2.77a7.75,7.75,0,1,0-9.88,11.86c1.48,1.28,3.94,3.68,3.94,5.43a.46.46,0,1,0,.91,0h0c0-1.75,2.45-4.14,3.93-5.42a9.31,9.31,0,0,0,1.1-.91A7.76,7.76,0,0,0,93.64,2.77Z"/><path class="cls-2" d="M88.16.5a7.75,7.75,0,0,1,5.48,13.23,9.31,9.31,0,0,1-1.1.91c-1.48,1.28-3.92,3.67-3.93,5.42h0a.46.46,0,1,1-.91,0c0-1.75-2.46-4.15-3.94-5.43A7.75,7.75,0,0,1,88.16.5m0-.5a8.25,8.25,0,0,0-5.84,14.08,8.05,8.05,0,0,0,1.13.94c2.38,2.08,3.75,3.91,3.75,5a1,1,0,1,0,1.91,0V20h0c0-1.12,1.4-2.93,3.73-5A7.18,7.18,0,0,0,94,14.08,8.25,8.25,0,0,0,88.16,0Z"/><rect class="cls-2" x="84.69" y="6.75" width="6.94" height="4.56"/><rect class="cls-2" x="83.69" y="10.81" width="8.94" height="1"/><polygon class="cls-2" points="88.16 3.83 83.72 7.05 83.72 7.61 88.16 7.61 92.59 7.61 92.59 7.05 88.16 3.83"/><rect class="cls-1" x="85.66" y="6.96" width="5" height="3.85" rx="0.12" ry="0.12"/><rect class="cls-2" x="86.89" y="7.75" width="0.65" height="1.81"/><rect class="cls-2" x="88.77" y="7.75" width="0.65" height="1.81"/><rect class="cls-2" x="87.42" y="8.33" width="1.47" height="0.22"/><rect class="cls-2" x="87.42" y="8.92" width="1.47" height="0.22"/></g></g></svg>