<svg xmlns="http://www.w3.org/2000/svg" viewBox="0 0 37.05 71.01"><defs><style>.cls-1{fill:#c5c5c4;}</style></defs><title>Asset 1</title><g id="Layer_2" data-name="Layer 2"><g id="Layer_1-2" data-name="Layer 1"><path class="cls-1" d="M24.26,16.55a45,45,0,0,0-.07,4.65v4.5c4.15.47,8.13,0,12.41.33-.35,4.27-1,8.43-1.66,12.78H24.22c-.06,3.73,0,7.25,0,10.77V71H10.81V39c-3.58-.29-7,0-10.79-.19C0,35.36,0,32.18,0,29a8.12,8.12,0,0,1,.27-3c3.28-.29,6.72.07,10.16-.19a7.83,7.83,0,0,0,.27-3.1A84.55,84.55,0,0,1,11,13.43C12,5.4,17.9.45,25.51.06c2.74-.14,5.48,0,8.21,0a6.54,6.54,0,0,1,3.33.69V11.6c-.59.71-1.47.38-2.25.4-1.91.05-3.83,0-5.74,0C26.1,12.14,24.57,13.55,24.26,16.55Z"/></g></g></svg>