<svg xmlns="http://www.w3.org/2000/svg" viewBox="0 0 75.47 75.38"><defs><style>.cls-1{fill:#c5c5c4;}</style></defs><title>Asset 3</title><g id="Layer_2" data-name="Layer 2"><g id="Layer_1-2" data-name="Layer 1"><path class="cls-1" d="M60.6,0C55.22.12,49.84,0,44.46,0H14.66A13.85,13.85,0,0,0,7.12,2,14.16,14.16,0,0,0,0,14.77C.06,30,.17,45.21,0,60.43A14.63,14.63,0,0,0,15,75.38c15.13,0,30.26,0,45.39,0a16.18,16.18,0,0,0,5.35-.83A14,14,0,0,0,75.41,61c0-7.74,0-15.49,0-23.24s-.18-15.32,0-23A14.56,14.56,0,0,0,60.6,0ZM24,48c-6.74-.06-10.29-5.38-10.22-10.53a10.26,10.26,0,0,1,20.51.34C34,43.35,30.11,48,24,48ZM51.56,48A10.07,10.07,0,0,1,41.38,37.78a10.15,10.15,0,0,1,10-10.41A10.33,10.33,0,0,1,51.56,48Z"/></g></g></svg>