<svg xmlns="http://www.w3.org/2000/svg" viewBox="0 0 75.28 75.38"><defs><style>.cls-1{fill:#c5c5c4;}</style></defs><title>Asset 2</title><g id="Layer_2" data-name="Layer 2"><g id="Layer_1-2" data-name="Layer 1"><path class="cls-1" d="M75.21,26a42.26,42.26,0,0,0-1-9.77c-1.91-7.88-6.82-12.88-14.63-15A35,35,0,0,0,51,.13Q38.38-.08,25.8,0a41.53,41.53,0,0,0-9.74,1.05C8.22,3,3.16,7.9,1.09,15.76a31.39,31.39,0,0,0-1,7.84c-.06,4.55,0,9.11,0,13.67,0,6.28-.3,12.56.39,18.84,1.06,9.7,7.25,16.45,16.77,18.28,4.33.84,8.71.67,13.05.83a212.19,212.19,0,0,0,21.84-.28,52.15,52.15,0,0,0,6-.55A19.6,19.6,0,0,0,74.24,59a45.78,45.78,0,0,0,1-9.76Q75.35,37.58,75.21,26ZM68.27,47.3a48.29,48.29,0,0,1-.91,10c-1.37,6.15-5.72,9.79-12,10.51a104.53,104.53,0,0,1-12,.5c-5.75,0-11.49,0-17.23,0a46.23,46.23,0,0,1-8.38-.92c-5.2-1-9.5-5.14-10.24-11.64A62,62,0,0,1,7,49q-.07-12.43,0-24.88A28.63,28.63,0,0,1,8,17.35a12.73,12.73,0,0,1,10.82-9.8A56.33,56.33,0,0,1,27.47,7c3.37,0,6.74,0,10.11,0V7c4.56,0,9.12,0,13.67,0a26.79,26.79,0,0,1,6.21.76c6,1.29,9.71,5.83,10.35,12.48a97.53,97.53,0,0,1,.48,9.82C68.23,35.82,68.29,41.56,68.27,47.3Z"/><path class="cls-1" d="M37.59,18.25c-11.91.07-19.39,9.28-19.44,19.43-.06,10.67,8.6,18.9,19.3,19.25,10.47.33,20.07-9.17,19.43-19.26C57.54,28.84,50.14,18.19,37.59,18.25Zm-.06,31.8a12.11,12.11,0,0,1-12.3-12.36,12.34,12.34,0,1,1,24.67-.15A12.09,12.09,0,0,1,37.53,50.05Z"/><path class="cls-1" d="M62.22,17.46A4.6,4.6,0,1,1,53,17.7a4.6,4.6,0,0,1,9.19-.24Z"/></g></g></svg>