<svg xmlns="http://www.w3.org/2000/svg" viewBox="0 0 75.47 75.22"><defs><style>.cls-1{fill:#c5c5c4;}</style></defs><title>Asset 4</title><g id="Layer_2" data-name="Layer 2"><g id="Layer_1-2" data-name="Layer 1"><path class="cls-1" d="M73.43,49.81C66.31,70.39,44.48,79.26,27,73.5c3.85-5.44,4.54-11.8,6.42-18.06.63.6,1.1,1.07,1.59,1.52a10.43,10.43,0,0,0,6.64,2.81A16.89,16.89,0,0,0,56.75,53.1a27.21,27.21,0,0,0,5.39-23.69c-1.94-8.51-8-13.57-16.23-15.68a29.38,29.38,0,0,0-19.23,1.61c-8.85,3.81-14.7,13-14.11,22.39A16.36,16.36,0,0,0,16,47.36c1.33,1.62,2.84,3.06,5.22,3.08a8.76,8.76,0,0,0,1.32-3.89,2.58,2.58,0,0,0-.53-2c-3.42-4.75-3.07-9.86-.85-14.8C24.13,23,29.56,19.39,37,19.16a21.08,21.08,0,0,1,6,.42C49.33,21.22,53.31,25.44,53.85,32A26.46,26.46,0,0,1,50.2,48.27a10.44,10.44,0,0,1-5.94,5,6.67,6.67,0,0,1-6.87-1.38C35.52,50.12,35.24,48,36,45.58c.88-2.88,1.65-5.78,2.51-8.66A14,14,0,0,0,39,32.33a4.83,4.83,0,0,0-2.91-4.57,5.09,5.09,0,0,0-5.38.82,8.93,8.93,0,0,0-3.44,6.31,13.74,13.74,0,0,0,.52,6.76,4.92,4.92,0,0,1,.09,3.17c-1.43,5.83-2.78,11.69-4.18,17.53a28.76,28.76,0,0,0-.89,7,4.94,4.94,0,0,1-.2,2.41C10.13,67.65-4.88,49.61,1.53,27.24a37.69,37.69,0,1,1,71.9,22.57Z"/></g></g></svg>