<svg xmlns="http://www.w3.org/2000/svg" viewBox="0 0 76.68 62.69"><defs><style>.cls-1{fill:#c5c5c4;}</style></defs><title>Asset 5</title><g id="Layer_2" data-name="Layer 2"><g id="Layer_1-2" data-name="Layer 1"><path class="cls-1" d="M76.68,7.69a33,33,0,0,1-7.44,7.82c-.37,18.72-7.85,33.41-24.63,42.34C30.65,65.3,12,63.86,0,55.49c4.27-.09,8.19.13,12-1a33.09,33.09,0,0,0,10.79-5.41c-7.08-.85-11.88-4.3-14.47-11,2.13-.36,4.15.19,6.32-.43-3.48-1.3-6.46-3-8.62-5.91a15.62,15.62,0,0,1-3.23-9.69c2.19.56,3.92,1.75,6.35,1.52C5.26,20.21,3,16.2,2.88,11.26a13.3,13.3,0,0,1,2.35-8.4A45.57,45.57,0,0,0,37.36,19.35,28.71,28.71,0,0,1,37.62,12c1.45-6.37,8-12,14.83-12,4.19.05,8,.89,11,3.8,1.14,1.08,2.28.9,3.52.56a36.72,36.72,0,0,0,7.74-3.3,15.55,15.55,0,0,1-6,8.28C71.63,9.58,73.8,8.19,76.68,7.69Z"/></g></g></svg>